<svg width="1200" height="820" viewBox="0 0 1200 820" fill="none" xmlns="http://www.w3.org/2000/svg">
  <rect width="1200" height="820" rx="36" fill="#060806"/>
  <circle cx="996" cy="108" r="170" fill="#7CFF00" opacity="0.12"/>
  <text x="88" y="104" fill="#F5FFF0" font-family="Arial, sans-serif" font-size="54" font-weight="800">Buy Odds Curve</text>
  <rect x="88" y="148" width="1024" height="576" rx="28" fill="#0B100B" stroke="#223022"/>

  <line x1="180" y1="660" x2="1040" y2="660" stroke="#415341" stroke-width="2"/>
  <line x1="180" y1="196" x2="180" y2="660" stroke="#415341" stroke-width="2"/>

  <line x1="180" y1="567.2" x2="1040" y2="567.2" stroke="#1C251C" stroke-width="1"/>
  <line x1="180" y1="474.4" x2="1040" y2="474.4" stroke="#1C251C" stroke-width="1"/>
  <line x1="180" y1="381.6" x2="1040" y2="381.6" stroke="#1C251C" stroke-width="1"/>
  <line x1="180" y1="288.8" x2="1040" y2="288.8" stroke="#1C251C" stroke-width="1"/>
  <line x1="180" y1="196" x2="1040" y2="196" stroke="#1C251C" stroke-width="1"/>

  <text x="124" y="666" fill="#A7B8A0" font-family="Arial, sans-serif" font-size="18">0%</text>
  <text x="114" y="573.2" fill="#A7B8A0" font-family="Arial, sans-serif" font-size="18">2%</text>
  <text x="114" y="480.4" fill="#A7B8A0" font-family="Arial, sans-serif" font-size="18">4%</text>
  <text x="114" y="387.6" fill="#A7B8A0" font-family="Arial, sans-serif" font-size="18">6%</text>
  <text x="114" y="294.8" fill="#A7B8A0" font-family="Arial, sans-serif" font-size="18">8%</text>
  <text x="106" y="202" fill="#A7B8A0" font-family="Arial, sans-serif" font-size="18">10%</text>

  <text x="168" y="712" fill="#A7B8A0" font-family="Arial, sans-serif" font-size="16">0.01 ETH</text>
  <text x="308" y="712" fill="#A7B8A0" font-family="Arial, sans-serif" font-size="16">0.05 ETH</text>
  <text x="428" y="712" fill="#A7B8A0" font-family="Arial, sans-serif" font-size="16">0.10 ETH</text>
  <text x="568" y="712" fill="#A7B8A0" font-family="Arial, sans-serif" font-size="16">0.25 ETH</text>
  <text x="708" y="712" fill="#A7B8A0" font-family="Arial, sans-serif" font-size="16">0.50 ETH</text>
  <text x="848" y="712" fill="#A7B8A0" font-family="Arial, sans-serif" font-size="16">0.75 ETH</text>
  <text x="988" y="712" fill="#A7B8A0" font-family="Arial, sans-serif" font-size="16">1.00 ETH</text>

  <path d="M180 655.36 C220 652 260 646 320 636.8 C370 629 400 620 440 613.6 C490 602 525 575 580 544 C630 515 675 465 720 428 C760 395 815 335 860 312 C905 289 970 230 1040 196" stroke="#7CFF00" stroke-width="8" stroke-linecap="round" stroke-linejoin="round"/>

  <circle cx="180" cy="655.36" r="9" fill="#7CFF00"/>
  <circle cx="320" cy="636.8" r="9" fill="#7CFF00"/>
  <circle cx="440" cy="613.6" r="9" fill="#7CFF00"/>
  <circle cx="580" cy="544" r="9" fill="#7CFF00"/>
  <circle cx="720" cy="428" r="9" fill="#7CFF00"/>
  <circle cx="860" cy="312" r="9" fill="#7CFF00"/>
  <circle cx="1040" cy="196" r="11" fill="#F4F973"/>
</svg>
